<?xml version="1.0" encoding="utf-8"?>
<!-- Generator: Adobe Illustrator 22.0.1, SVG Export Plug-In . SVG Version: 6.00 Build 0)  -->
<svg version="1.1" id="Ebene_2_1_" xmlns="http://www.w3.org/2000/svg" xmlns:xlink="http://www.w3.org/1999/xlink" x="0px" y="0px"
	 viewBox="0 0 189.4 47.9" style="enable-background:new 0 0 189.4 47.9;" xml:space="preserve">
<style type="text/css">
	.st0{fill:#60605F;}
	.st1{fill:url(#SVGID_1_);}
	.st2{fill:#FFFFFF;}
</style>
<title>Zeichenfläche 1</title>
<path class="st0" d="M0.3,12.5h2.2L4,18.4l0,0l1.9-5.9h1.9l1.9,6.1l0,0l1.5-6.1h2.1l-2.7,9.2H8.8l-2-6.4l0,0l-2,6.4H3L0.3,12.5z"/>
<path class="st0" d="M14.5,12.5h2v9.2h-2V12.5z"/>
<path class="st0" d="M18.7,12.5h2v7.3h3.8v1.9h-5.8V12.5z"/>
<path class="st0" d="M25.9,12.5h2v3.4h3.9v-3.4h2v9.2h-2v-4h-3.9v4h-2L25.9,12.5z"/>
<path class="st0" d="M36.1,12.5h6.3v1.9h-4.2v1.7h4V18h-4v1.9h4.5v1.8h-6.5V12.5z"/>
<path class="st0" d="M44.5,12.5h2v7.3h3.8v1.9h-5.8V12.5z"/>
<path class="st0" d="M51.7,12.5h3.1l2.1,6l0,0l2.1-6h3v9.2h-2v-7.1l0,0l-2.4,7.1H56l-2.3-7.1l0,0v7.1h-2L51.7,12.5z"/>
<path class="st0" d="M75.8,18.1c0,2.1-1.7,3.9-3.9,3.9c-2.1,0-3.9-1.7-3.9-3.9v-5.7h2v5.6c-0.1,1,0.7,1.9,1.7,2c1,0.1,1.9-0.7,2-1.7
	c0-0.1,0-0.2,0-0.3v-5.6h2L75.8,18.1z"/>
<path class="st0" d="M77.9,12.5h2.8l3.9,6.4l0,0v-6.4h2v9.2H84l-4-6.6l0,0v6.6h-2L77.9,12.5z"/>
<path class="st0" d="M88.8,12.5h3c3,0,5.4,1.3,5.4,4.6c0,3-2.4,4.6-5.2,4.6h-3.3V12.5z M90.8,19.8h1c1.9,0,3.3-0.7,3.3-2.8
	c0-1.8-1.4-2.7-3.2-2.7h-1.1L90.8,19.8z"/>
<path class="st0" d="M103.3,12.5h6.3v1.9h-4.2v1.7h4V18h-4v1.9h4.5v1.8h-6.5V12.5z"/>
<path class="st0" d="M111.8,12.5h2v7.3h3.8v1.9h-5.8V12.5z"/>
<path class="st0" d="M123.5,14.7c-0.4-0.4-0.9-0.6-1.5-0.6c-0.6,0-1.4,0.3-1.4,0.9c0,1.7,4.2,0.6,4.2,3.8c0,2.1-1.7,3-3.6,3
	c-1.1,0-2.3-0.4-3.1-1.2l1.4-1.6c0.4,0.5,1.1,0.9,1.8,0.9c0.7,0,1.4-0.3,1.4-1c0-1.7-4.3-0.8-4.3-3.9c0-2,1.7-3,3.5-3
	c1,0,2,0.3,2.8,1L123.5,14.7z"/>
<path class="st0" d="M126.8,12.5h6.2v1.9h-4.2v1.7h4V18h-4v1.9h4.5v1.8h-6.5L126.8,12.5z"/>
<path class="st0" d="M1,27.5h2v3.4h3.9v-3.4H9v9.2H7v-4H3v4H1V27.5z"/>
<path class="st0" d="M10.9,27.5h6.3v1.9h-4.2v1.7h4V33h-4v1.9h4.5v1.8h-6.5V27.5z"/>
<path class="st0" d="M19.3,27.5h3.6c1.9,0,3.5,0.6,3.5,2.8c0.1,1.2-0.8,2.3-2,2.5l2.3,3.9h-2.4L22.3,33h-1v3.7h-2L19.3,27.5z
	 M21.3,31.3h1.2c0.7,0,1.7,0,1.7-1s-0.8-1.1-1.6-1.1h-1.3L21.3,31.3z"/>
<path class="st0" d="M31.5,27.5h1.7l4,9.2h-2.3l-0.8-2h-3.6l-0.8,2h-2.2L31.5,27.5z M32.3,30.2L31.2,33h2.2L32.3,30.2z"/>
<path class="st0" d="M38.5,27.5h6.3v1.9h-4.2v1.7h4V33h-4v1.9h4.5v1.8h-6.5V27.5z"/>
<path class="st0" d="M54.6,33.2c0.1,2-1.4,3.7-3.3,3.8c-0.2,0-0.4,0-0.6,0c-2,0.2-3.7-1.2-3.9-3.2c0-0.2,0-0.4,0-0.6v-5.7h2v5.6
	c-0.1,1,0.7,1.9,1.7,2c1,0.1,1.9-0.7,2-1.7c0-0.1,0-0.2,0-0.3v-5.6h2L54.6,33.2z"/>
<path class="st0" d="M61.3,29.7c-0.4-0.4-0.9-0.6-1.5-0.6c-0.6,0-1.4,0.3-1.4,1c0,1.7,4.2,0.6,4.2,3.8c0,2.1-1.7,3-3.5,3
	C58,37,56.8,36.5,56,35.8l1.4-1.6c0.4,0.5,1.1,0.9,1.8,0.9c0.7,0,1.4-0.3,1.4-1c0-1.7-4.3-0.8-4.3-3.9c0-2,1.7-3,3.5-3
	c1,0,2,0.3,2.8,1L61.3,29.7z"/>
<path class="st0" d="M68,33.2h-3.8v-1.6H68V33.2z"/>
<path class="st0" d="M74.3,29.7c-0.4-0.4-0.9-0.6-1.5-0.6c-0.6,0-1.4,0.3-1.4,1c0,1.7,4.2,0.6,4.2,3.8c0,2.1-1.7,3-3.6,3
	c-1.1,0-2.3-0.4-3.1-1.2l1.4-1.6c0.4,0.5,1.1,0.9,1.8,0.9c0.7,0,1.4-0.3,1.4-1c0-1.7-4.3-0.8-4.3-3.9c0-2,1.7-3,3.5-3
	c1,0,2,0.3,2.8,1L74.3,29.7z"/>
<path class="st0" d="M79,29.3h-2.6v-1.8h7.3v1.8h-2.6v7.4H79V29.3z"/>
<path class="st0" d="M85,27.5h2v9.2h-2V27.5z"/>
<path class="st0" d="M89.1,27.5h6.2v1.9h-4.1v1.9H95v1.9h-3.9v3.6h-2L89.1,27.5z"/>
<path class="st0" d="M99,29.3h-2.6v-1.8h7.3v1.8h-2.6v7.4H99V29.3z"/>
<path class="st0" d="M112.7,33.2c0,2.1-1.7,3.9-3.9,3.9c-2.1,0-3.9-1.7-3.9-3.9v-5.7h2v5.6c-0.1,1,0.7,1.9,1.7,2
	c1,0.1,1.9-0.7,2-1.7c0-0.1,0-0.2,0-0.3v-5.6h2L112.7,33.2z"/>
<path class="st0" d="M114.6,27.5h2.8l3.9,6.4l0,0v-6.4h2v9.2h-2.7l-4-6.6l0,0v6.6h-2L114.6,27.5z"/>
<path class="st0" d="M133.6,36c-1.2,0.6-2.5,0.9-3.9,0.9c-2.6,0.2-4.8-1.7-5-4.3c0-0.2,0-0.4,0-0.5c-0.1-2.6,1.9-4.7,4.5-4.8
	c0.2,0,0.4,0,0.5,0c1.3-0.1,2.6,0.3,3.7,1.2L132,30c-0.6-0.6-1.4-0.9-2.2-0.9c-1.5,0-2.8,1.2-2.9,2.7c0,0.1,0,0.2,0,0.3
	c-0.1,1.5,1,2.9,2.5,3c0.1,0,0.2,0,0.3,0c0.7,0,1.3-0.1,1.9-0.5v-1.6H130v-1.9h3.6L133.6,36z"/>
<linearGradient id="SVGID_1_" gradientUnits="userSpaceOnUse" x1="155.3145" y1="2.769" x2="175.2055" y2="45.431" gradientTransform="matrix(1 0 0 -1 0 48)">
	<stop  offset="0" style="stop-color:#E84D14"/>
	<stop  offset="0.42" style="stop-color:#F29100"/>
	<stop  offset="1" style="stop-color:#F7B030"/>
</linearGradient>
<path class="st1" d="M141.7,23.9c0,13,10.5,23.5,23.5,23.5c13,0,23.5-10.5,23.5-23.5S178.3,0.4,165.3,0.4c0,0,0,0,0,0
	C152.3,0.4,141.7,10.9,141.7,23.9z"/>
<path class="st2" d="M168.7,35.5c0.1,0,0.1,0.1,0,0.2c-0.1,0.2-0.2,0.3-0.4,0.4c-0.4,0.2-0.8,0.4-1.1,0.6c0,0-0.1,0.1-0.1,0
	s0-0.1,0.1-0.1c0.2-0.1,0.4-0.2,0.5-0.3c0.2-0.1,0.4-0.3,0.5-0.6c0-0.1,0.1-0.2,0.3-0.2C168.5,35.5,168.6,35.5,168.7,35.5z"/>
<path class="st2" d="M166,37.2C166,37.2,166,37.3,166,37.2l-0.7,0.4l-0.4,0.2c0,0-0.1,0-0.1,0s0-0.1,0.1-0.1c0.3-0.2,0.7-0.3,1-0.5
	h0.1C165.9,37.2,166,37.2,166,37.2z"/>
<path class="st2" d="M170.4,35.6c0.1,0,0.3,0,0.3,0.1s-0.2,0.2-0.3,0.2c-0.1,0-0.2,0-0.3-0.1c-0.1-0.1-0.1-0.1,0-0.1
	C170.2,35.6,170.3,35.6,170.4,35.6L170.4,35.6z"/>
<path class="st2" d="M157.9,21.6l-1.2,0.7c0,0-0.4,0.5-0.7,0.4s-1.2-0.8-0.6-0.8c0.5,0,1-0.1,1.4-0.2L157.9,21.6z"/>
<path class="st2" d="M167.1,9.9c-0.1-0.1-0.3-0.2-0.4-0.3c-0.4-0.2-0.9-0.4-1.3-0.6c-0.6-0.3-1.3-0.5-1.9-0.4
	c-0.4,0.1-0.8,0.1-1.2,0.1c-0.2-0.1-0.5,0-0.6,0.2c-0.2,0.2-0.3,0.1-0.4-0.1c0-0.1-0.1-0.2-0.2-0.3c-0.5-0.2-1-0.4-1.5-0.5
	c-0.9-0.1-1.7-0.1-2.6,0c-0.6,0.1-1.2,0.1-1.7,0.2c-0.5,0-0.9,0.3-1.1,0.8l0,0c0,0.1-0.2,0.2-0.3,0.1c0,0,0,0,0,0
	c-0.1,0-0.2-0.1-0.4-0.2s-0.2,0-0.3,0.1s-0.1,0.2-0.2,0.1c0,0-0.1,0-0.1-0.1c-0.2-0.1-0.3,0-0.4,0.2c0,0.1-0.1,0.2-0.1,0.2
	c0,0.1-0.1,0.1-0.1,0.2c-0.2,0.4-0.3,0.9-0.2,1.3c0,0.1,0,0.2,0,0.2c0,0.1-0.1,0.1-0.1,0.1s-0.1-0.1-0.1-0.1c0-0.1,0-0.1,0-0.2
	c0,0,0-0.1-0.1-0.1s0,0.1-0.1,0.1c0,0.2-0.1,0.3-0.2,0.4c-0.2,0.2-0.4,0.3-0.6,0.3c-0.5,0.1-1,0.3-1.4,0.6c-0.6,0.4-1.1,0.9-1.4,1.5
	c-0.1,0.1-0.1,0.2-0.1,0.4c0,0.3,0,0.6,0.1,0.9c0,0.1,0.1,0.1,0.1,0.2c0.4,0.3,0.5,0.9,0.3,1.3c-0.2,0.3-0.2,0.7,0.1,0.9
	c0,0,0,0,0,0c0,0,0.1,0.1,0.1,0.1c0.1,0.1,0.1,0.3,0,0.4c0,0,0,0,0,0c-0.1,0.1-0.1,0.3,0,0.4l0.3,0.6c0.2,0.2,0.2,0.5,0,0.7
	c-0.1,0.1-0.1,0.2-0.2,0.3c-0.3,0.5-0.3,0.9,0.3,1.1l0,0c0.3,0.1,0.5,0.3,0.5,0.6c0,0.2,0,0.4,0.1,0.6c0,0.4,0.3,0.6,0.7,0.6
	c0.3,0,0.5,0.1,0.6,0.5c0,0.2,0,0.5,0,0.7c-0.1,0.9,0,1.8,0.4,2.6c0.2,0.4,0.3,0.8,0.3,1.2c0,0.3,0,0.6,0.1,0.9
	c0.2,0.5,0.3,0.9,0.4,1.4c0,0.2,0.1,0.4,0.2,0.6c0.3,0.5,0.9,0.7,1.4,0.7c0.1,0,0.1-0.1,0.1-0.2c-0.1-0.3,0-0.6,0.1-0.8
	c0.1-0.2,0.2-0.3,0.3-0.5c0.1-0.2,0.2-0.4,0.2-0.5c0-0.4-0.1-0.7-0.4-0.9c-0.3-0.2-0.3-0.3,0-0.5l0,0c0.2-0.2,0.2-0.3-0.1-0.4
	c-0.3-0.1-0.5-0.2-0.8-0.4c-0.1-0.1-0.2,0-0.3,0.1l-0.3,0.3c-0.1,0.1-0.2,0.1-0.3,0c-0.3-0.4-0.5-0.9-0.6-1.4
	c-0.1-0.1-0.1-0.2,0-0.2c0.2-0.2,0.3-0.4,0.3-0.7c0-0.2,0.1-0.4,0.2-0.6c0.2-0.4,0.4-0.7,0.7-1c0.2-0.2,0.3-0.5,0.2-0.8
	c0-0.1,0-0.2,0.1-0.4c0.2-0.4,0.4-0.8,0.7-1.1c0.1-0.1,0.2-0.3,0.1-0.5c-0.1-0.2-0.1-0.3,0-0.5c0-0.1,0.1-0.2,0.1-0.4
	c0.1-0.3,0.2-0.6,0.4-0.9c0-0.1,0-0.1,0.1-0.1s0.1,0.1,0.1,0.1c0,0.1,0,0.3,0.1,0.4c0,0.2,0.2,0.3,0.4,0.2c0,0,0,0,0,0l0.2,0
	l0.8-0.3c0.2-0.1,0.8-0.1,1-0.1c0.4-0.2,0.9-0.3,1.4-0.4c0.2,0,0.7-0.1,0.7-0.2s-1-0.7-1.3-0.7c-0.4,0.1-0.8,0-1.2-0.1
	c-0.2-0.1-0.8,0.4-1,0.5s-0.1,0-0.1-0.1c0-0.2,0-0.3,0.1-0.5c0.5-0.6,0.9-1.3,1.2-2.1c0.1-0.1,0.1-0.3,0.2-0.5
	c0.1-0.2,0-0.3-0.2-0.4c-0.1-0.1-0.3-0.1-0.4-0.3l-0.8-0.7c0,0-0.1,0-0.1-0.1s0.1,0,0.1,0c0.2,0.1,0.5,0.1,0.7,0.1
	c0.6,0,1.2-0.1,1.8-0.1c0.5,0,1,0.2,1.3,0.5l0.1,0.1c0.3,0.2,0.6,0.5,0.8,0.9c0.2,0.4,0.5,0.7,0.9,0.9c0.2,0.2,0.6,0.1,0.7-0.1
	c0,0,0-0.1,0-0.1c0-0.1,0.1-0.1,0.1-0.1c0.2-0.3,0.4-0.6,0.5-1c0.2-0.5,0.4-1,0.7-1.5c0.2-0.3,0.3-0.5,0.5-0.8s0.2-0.4,0.4-0.6
	c0.2-0.2,0.4-0.4,0.6-0.6c0.4-0.4,0.8-0.7,1.2-1c0.1-0.1,0.3-0.2,0.4-0.3s0.6-0.2,0.8-0.4S167.2,10,167.1,9.9z M153.4,21.6
	c-0.1,0-0.1,0.1-0.1,0.1c-0.1,0.2-0.3,0.3-0.5,0.3c-0.1,0-0.2,0.1-0.2,0.2c-0.2,0.2-0.3,0.2-0.5-0.1c-0.2-0.3-0.4-0.5-0.6-0.6
	c-0.2-0.1-0.3-0.3-0.2-0.5c0.1-0.2,0.2-0.3,0.4-0.3c0.2,0.1,0.4,0.1,0.6,0.1h0.1c0.1,0,0.2-0.1,0.2-0.2c0,0,0-0.1,0-0.1
	c0-0.1-0.1-0.1-0.1-0.2c-0.1-0.1,0-0.2,0.1-0.3c0,0,0.1,0,0.1,0c0.1,0,0.2,0,0.3,0h0.1c0.1,0,0.3-0.1,0.4,0s0,0.2,0,0.4l-0.2,0.9
	c0,0.1,0,0.1,0.1,0.1s0.2,0,0.2,0.1C153.5,21.5,153.5,21.6,153.4,21.6z M153.7,17.6l-0.6,0.9l-0.1,0.1c-0.1,0.1-0.2,0.1-0.3,0
	c-0.1-0.1,0-0.2,0-0.3l0.1-0.1c0.1-0.2,0.2-0.4,0.2-0.6c0-0.2,0-0.3,0.1-0.5c0.1-0.1,0.2-0.2,0.4-0.1s0.2,0.2,0.2,0.3
	C153.8,17.5,153.8,17.5,153.7,17.6z M160.4,9.4c-0.1,0-0.2-0.1-0.4-0.1c-0.5-0.2-1-0.4-1.6-0.3c-0.3,0-0.5,0.1-0.8,0.1
	c-0.1,0-0.3,0-0.4-0.1c-0.1-0.1-0.1-0.1,0-0.2c0-0.1,0.1-0.1,0.2-0.1c0.5-0.1,1.1-0.2,1.7-0.1c0.3,0.1,0.6,0.3,0.9,0.4
	c0.1,0.1,0.3,0.1,0.4,0.2s0.1,0.1,0.1,0.1S160.4,9.5,160.4,9.4z"/>
<path class="st2" d="M168.6,34.5c0.3-0.3,0.6-0.6,1-0.8c0.1-0.1,0.3-0.1,0.4-0.2c0.4-0.1,0.7-0.2,1.1-0.4c0.5-0.2,1.1-0.4,1.6-0.6
	c0.4-0.2,0.9-0.4,1.3-0.6c0.4-0.2,0.8-0.3,1.2-0.5c0.5-0.2,0.9-0.5,1.3-0.8c0.3-0.3,0.6-0.5,1-0.7c0.2-0.1,0.3-0.2,0.4-0.3
	c0.4-0.3,0.7-0.6,0.9-0.9c0.1-0.2,0.3-0.3,0.6-0.3c0,0,0.1,0,0.1,0s0,0.1-0.1,0.1c-0.1,0.1-0.3,0.3-0.4,0.4
	c-0.3,0.4-0.4,0.8-0.6,1.2c-0.1,0.5-0.2,1.1-0.2,1.6c0,0.1,0,0.1,0,0.2c0,0.1-0.1,0.2-0.2,0.3c-0.4,0.1-0.8,0.3-1.1,0.5
	s-0.5,0.2-0.8,0.3s-0.6,0.2-0.9,0.3c-0.2,0.1-0.4,0-0.6-0.1c-0.1-0.1-0.2-0.1-0.3,0c-0.3,0.2-0.7,0.3-1,0.5s-0.7,0.3-1.1,0.4
	l-1.2,0.5c-0.1,0.1-0.3,0.1-0.4,0.1c-0.4,0.1-0.8,0.4-1.1,0.7c-0.3,0.3-0.8,0.6-1.3,0.7c-0.3,0.1-0.7,0.1-1,0
	c-0.2-0.1-0.4-0.2-0.6-0.3l-0.3-0.2L165,35c-0.2-0.1-0.3-0.2-0.5-0.4c-0.2-0.2-0.6-0.3-0.8-0.1c0,0,0,0-0.1,0.1l-0.4,0.3
	c0,0-0.1,0-0.1,0s0,0,0-0.1c0.1-0.2,0.2-0.3,0.3-0.5c0.1-0.1,0.1-0.1,0.2-0.2c0.1-0.1,0-0.2-0.1-0.3c-0.1,0-0.2,0-0.2,0L163,34
	c-0.3,0.2-0.7,0.4-0.9,0.7c-1.2,1.3-2.5,2.4-3.8,3.5c-0.4,0.4-1,0.5-1.5,0.5c-0.2,0-0.3,0-0.5,0c-0.1,0-0.1-0.1-0.1-0.2
	c0-0.1,0.1-0.2,0.1-0.3c0.5-0.5,1-1,1.5-1.5c0.1-0.1,0.3-0.2,0.4-0.3c0.3-0.2,0.6-0.4,0.8-0.6c0.2-0.2,0.5-0.3,0.8-0.4
	c1-0.5,1.9-1,2.7-1.7l0.5-0.4c0.2-0.2,0.3-0.4,0.3-0.7c0-0.2,0-0.4,0.1-0.6c0-0.1,0.1-0.1,0.2-0.1l0.5,0.1c0.2,0.1,0.5,0.3,0.6,0.5
	c0.1,0.1,0.1,0.2,0.2,0.3c0.2,0.2,0.2,0.5,0.2,0.7c-0.1,0.2,0.1,0.5,0.3,0.5c0,0,0.1,0,0.1,0c0.1,0,0.2,0,0.3,0
	c0.1,0,0.1,0.1,0.1,0.2c0,0.2,0.1,0.3,0.2,0.3c0,0,0,0,0,0c0.2,0,0.4,0.1,0.6,0.1c0.2,0,0.4-0.1,0.5,0.1s0.2,0,0.4,0
	C168,35,168.4,34.8,168.6,34.5z"/>
<path class="st2" d="M156.7,34.8c-0.8,0.5-1.5,0.9-2.4,1.3c-0.1,0-0.1,0.1-0.2,0.2c-0.2,0.3-0.4,0.5-0.8,0.6
	c-0.5,0.2-0.9,0.4-1.3,0.7c-0.5,0.5-2,1.7-1.8,1.2c0.7-1.5-0.8-2.2,2.2-4.4c0.2-0.3,0.4-0.6,0.7-0.8c0.5-0.3,0.9-0.7,1.2-1.1l0,0
	c0.2-0.3,0.3-0.3,0.6-0.1s0.7,0.5,1,0.8c0.1,0.1,0.2,0.2,0.2,0.3c0.1,0.3,0.3,0.6,0.5,0.8c0.1,0.1,0.1,0.1,0.1,0.2
	C156.8,34.7,156.8,34.8,156.7,34.8z"/>
<path class="st2" d="M158.3,23.2h0.1c0.2,0.1,0.2,0.2,0,0.3s-0.2,0.1-0.4,0.2s-0.2,0.2-0.1,0.4s0.2,0.3,0,0.6
	c-0.2,0.2-0.3,0.5-0.2,0.8c0,0.1,0,0.1,0,0.2c0,0.1-0.1,0.2-0.1,0.2c-0.1,0-0.1-0.1-0.2-0.1c-0.3-0.3-0.5-0.7-0.8-1
	c-0.2-0.3-0.4-0.6-0.4-1c0-0.1,0-0.2,0.1-0.3c0.2-0.2,0.4-0.4,0.7-0.5c0.1,0,0.2,0,0.3,0L158.3,23.2z"/>
<path class="st2" d="M153.1,26.3c0.3,0.1,0.6,0.3,0.8,0.6c0.1,0.1,0.1,0.2,0,0.3s-0.4,0.1-0.6,0.1c-0.2,0-0.4-0.1-0.6-0.1
	c-0.2-0.1-0.3-0.2-0.3-0.4c0-0.2,0.1-0.4,0.3-0.5h0.1C152.9,26.3,153,26.3,153.1,26.3z"/>
<path class="st2" d="M167.9,36.8c0.1,0.1,0.1,0.1,0.1,0.2c-0.1,0.2-0.2,0.3-0.4,0.4c-0.4,0.2-0.8,0.4-1.2,0.6c0,0-0.1,0.1-0.1,0
	s0-0.1,0.1-0.1c0.2-0.1,0.4-0.2,0.6-0.3c0.3-0.1,0.5-0.4,0.6-0.6c0.1-0.2,0.1-0.2,0.3-0.2C167.8,36.7,167.9,36.7,167.9,36.8z"/>
<path class="st2" d="M156.3,27.7c0-0.1,0.1-0.2,0.2-0.2c0.1,0,0.2-0.1,0.4-0.1c0.1-0.1,0.3,0,0.3,0.1c0.1,0.1,0,0.2-0.1,0.3
	c-0.1,0.1-0.3,0.2-0.5,0.2C156.4,27.9,156.3,27.8,156.3,27.7z"/>
<path class="st2" d="M166.8,27.1c-0.1,0-0.1-0.2-0.1-0.3c0,0,0,0,0,0c0-0.1,0.2-0.1,0.3-0.1c0,0,0,0,0,0c0.1,0.1,0.2,0.1,0.3,0.1
	c0.2,0,0.3,0.1,0.3,0.2s-0.1,0.2-0.3,0.2l0,0C167.1,27.3,166.9,27.2,166.8,27.1z"/>
<path class="st2" d="M165.1,38.5C165.1,38.6,165.1,38.6,165.1,38.5l-0.8,0.4l-0.4,0.2c0,0-0.1,0-0.1,0s0-0.1,0-0.1
	c0.4-0.2,0.7-0.4,1.1-0.5L165.1,38.5C165,38.5,165.1,38.5,165.1,38.5z"/>
<path class="st2" d="M169.8,36.8c0.1,0,0.3,0,0.3,0.1s-0.2,0.2-0.3,0.2c-0.1,0-0.2,0-0.3-0.1c-0.1-0.1-0.1-0.1,0-0.2
	C169.6,36.8,169.6,36.8,169.8,36.8L169.8,36.8z"/>
<path class="st2" d="M157.6,29C157.6,29,157.6,29.1,157.6,29c-0.1,0.1-0.1,0-0.1,0c-0.1-0.2,0-0.4,0.1-0.6c0,0,0,0,0.1,0
	c0,0,0.1,0,0.1,0.1c0,0.1,0,0.2,0,0.2C157.7,28.8,157.7,28.9,157.6,29z"/>
<path class="st2" d="M163.5,30.9c0-0.1,0-0.1,0.1-0.1s0.2-0.2,0.3-0.1s0.1,0.1,0,0.2c-0.1,0.1-0.2,0.1-0.2,0.1
	C163.6,30.9,163.5,30.9,163.5,30.9z"/>
<path class="st2" d="M184.6,21.6c0-0.4-0.2-0.8-0.3-1.2c-0.1-0.7-0.2-1.4-0.2-2.1c0-0.5-0.1-1.1-0.3-1.6c-0.2-0.6-0.6-1.2-1-1.6
	l-0.1-0.2c-0.1-0.1-0.2-0.2-0.3-0.3c-0.2-0.1-0.3-0.4-0.4-0.6c0-0.1-0.1-0.2-0.2-0.2c-0.1,0-0.2,0-0.3-0.1c-0.4-0.3-0.8-0.8-1.1-1.2
	c-0.2-0.2-0.4-0.5-0.6-0.7c-0.4-0.4-0.9-0.7-1.3-1.1c-0.2-0.1-0.3-0.3-0.5-0.4c0-0.1-0.1-0.1-0.2-0.1c-0.2,0-0.4-0.1-0.6-0.1
	c-0.8-0.4-1.6-0.6-2.5-0.7c-0.2,0-0.4,0-0.6-0.1c-0.4-0.1-0.7-0.1-1.1-0.1h-2.1c-0.3,0-0.5,0-0.7,0.1c-0.2,0.1-0.5,0.2-0.7,0.2
	c-0.6,0.2-1.3,0.5-1.8,0.8c-0.2,0.1-0.5,0.3-0.7,0.4c-0.6,0.2-1.1,0.6-1.6,1c-0.1,0.1-0.2,0.2-0.4,0.3c-0.5,0.3-0.8,0.7-1,1.2
	c0,0.1-0.1,0.1-0.1,0.1c-0.5,0.8-0.9,1.6-1.1,2.6c-0.1,0.5-0.1,0.9-0.3,1.4s-0.3,0.5-0.7,0.5h-0.9c-0.3,0-0.5,0.2-0.5,0.5
	c0,0.3-0.1,0.6-0.3,0.9c-0.1,0.1-0.1,0.3-0.1,0.4c0,0.6,0.1,1.2,0.2,1.7c0.1,0.6,0.5,1.1,1,1.4c0.2,0.1,0.3,0.4,0.3,0.6
	c-0.1,0.8-0.2,1.7-0.2,2.5c0,0.5,0,0.9,0.1,1.4c0.2,1,0.5,2,0.7,3c0.1,0.4,0.2,0.7,0.4,1c0.1,0.2,0.2,0.2,0.4,0l0.1-0.1
	c0.2-0.3,0.5-0.6,0.9-0.9c0.2-0.1,0.4-0.3,0.6-0.5s0.3-0.4,0-0.6c-0.2-0.1-0.3-0.2-0.4-0.4c-0.1-0.4-0.1-0.9,0.5-0.8
	c0.1,0,0.3,0,0.4-0.1c0.1,0,0.1-0.1,0-0.2c-0.1-0.1-0.3-0.2-0.4-0.3c-0.2-0.1-0.4-0.2-0.6-0.3c-0.2-0.2-0.4-0.2-0.7-0.2
	c-0.1,0-0.3,0-0.3-0.1s0-0.3,0.1-0.4c0,0,0-0.1,0.1-0.1c0.4-0.3,0.8-0.5,1.3-0.5c0.3,0,0.5-0.1,0.6-0.3c0.1-0.1,0.1-0.1-0.1-0.2
	c-0.1-0.1-0.3-0.1-0.4-0.1c-0.3,0-0.3-0.1-0.4-0.3v-0.2c0-0.2-0.3-0.4-0.4-0.4s-0.3,0.1-0.4,0.3c-0.2,0.3-0.4,0.7-0.5,1.1
	c-0.1,0.2-0.1,0.4-0.2,0.6s-0.1,0.2-0.3,0.2s-0.2-0.1-0.2-0.3c-0.1-0.4-0.1-0.9,0-1.4c0.1-0.3,0.3-0.6,0.5-0.9
	c0.2-0.2,0.2-0.2,0-0.4c-0.1-0.1-0.1-0.3-0.1-0.4c0-0.1,0.1-0.2,0.1-0.3c0.3-0.4,0.6-0.8,0.9-1.2c0,0,0.1-0.1,0.1-0.1
	c0.1-0.1,0.3-0.2,0.3-0.4l0.6-1.2c0,0,0-0.1,0-0.1s-0.1,0-0.1,0c-0.3,0.2-0.5,0.4-0.8,0.7s-0.3,0.2-0.5,0c-0.2-0.2-0.4-0.4-0.7-0.5
	c-0.1,0-0.1-0.1-0.2-0.1c-0.1-0.2-0.2-0.4-0.3-0.7c0-0.2,0-0.3,0.2-0.4c0.1-0.1,0.3,0,0.4,0c0.1,0.1,0.3,0.2,0.4,0.2
	c0.2,0,0.5,0,0.7,0.1c0.2,0.1,0.4,0.1,0.6,0c0.2-0.1,0.4,0.1,0.5,0.3c0,0.1,0.1,0.1,0.2,0c0.2-0.1,0.3-0.3,0.4-0.4
	c0-0.1,0.1-0.2,0.1-0.4c0-0.1,0.1-0.1,0.2-0.2c0.3,0,0.6,0.1,0.8,0.4c0.2,0.5,0.8,0.7,1.3,0.5c0.1-0.1,0.2-0.1,0.4-0.2
	c0.4-0.1,0.7-0.1,1.1-0.1c0.1,0,0.2,0,0.3,0.1c0.2,0.1,0.4,0.3,0.5,0.6c0.1,0.2,0.2,0.4,0.5,0.5c0.1,0,0.1,0.1,0.1,0.1
	c0,0.1-0.1,0.1-0.1,0.2h-0.2c-0.1,0-0.2,0-0.3,0c-0.2,0.1-0.4,0.1-0.6,0.1c-0.4,0-0.7,0.1-1,0.3c-0.1,0.1-0.2,0.1-0.3,0
	c-0.1,0-0.2-0.1-0.3-0.1c-0.1,0-0.2,0-0.3,0.2s0,0.2,0.2,0.3c0.3,0.2,0.7,0.3,1,0.4c0.1,0,0.2,0.1,0.2,0.2c0,0.2,0,0.4,0,0.5
	c0,0.1,0,0.1-0.1,0.1h-0.3c-0.1,0-0.3,0.1-0.3,0.3c0,0.1,0.1,0.2,0.3,0.2c0.2,0,0.4,0,0.6-0.1c0.4,0,0.7-0.1,1-0.3
	c0.2-0.2,0.4-0.4,0.5-0.6c0.2-0.2,0.3-0.4,0.4-0.6c0.1-0.1,0.1-0.3,0.2-0.4c0.1-0.1,0.2-0.2,0.4-0.2c0.1,0,0.3,0,0.4,0
	c0.6,0,1.1-0.1,1.7-0.3c0.3-0.1,0.6,0,0.9-0.1s0.8,0,1.2-0.1c0.6-0.1,1.1-0.1,1.7-0.2c0.1,0,0.3,0,0.4,0c0.2,0.1,0.4,0.1,0.6,0.1
	c0.3,0,0.5,0.2,0.6,0.4c0,0.1,0,0.1,0.1,0.1s0.1-0.1,0.1-0.1c0.2-0.3,0.5-0.6,0.9-0.7c0.1,0,0.3,0,0.4,0c0.3,0.2,0.5,0.4,0.7,0.7
	c0.5,0.8,0.6,1.7,0.3,2.6c-0.1,0.2-0.1,0.3-0.2,0.5c0,0.1,0,0.2,0,0.3c0,0.3,0,0.6-0.1,0.9c-0.1,0.1-0.1,0.3-0.2,0.5
	s-0.2,0.5-0.4,0.6c-0.3,0.2-0.5,0.4-0.6,0.7c-0.1,0.2-0.2,0.4-0.3,0.6c-0.2,0.4-0.6,0.4-1,0.5c-0.2,0.1-0.3,0.1-0.5,0.1
	c0,0-0.1,0-0.1,0.1s0.1,0,0.1,0c0.4,0,0.8,0,1.2-0.1c0.3-0.1,0.6-0.4,0.8-0.7c0.1-0.4,0.3-0.7,0.6-0.9c0.1-0.1,0.2-0.2,0.3-0.3
	c0-0.1,0.1-0.1,0.1-0.1c0.1-0.1,0.1-0.1,0.2,0c0.1,0.1,0.3,0.1,0.4,0c0.3-0.1,0.5-0.3,0.6-0.5c0.2-0.2,0.4-0.4,0.6-0.6
	c0,0,0.1,0,0.1,0s0.3,0.3,0.5,0.3s0.2,0.1,0.3-0.1c0-0.3,0.1-0.6,0.2-0.9c0.1-0.2,0.1-0.3,0.1-0.5c-0.1-0.2-0.1-0.4,0-0.6
	c0.1-0.2,0.2-0.5,0.3-0.7C184.6,22.1,184.6,21.9,184.6,21.6z M179,19.9c0,0-0.1,0-0.1,0h-1.2c-0.3,0-0.6,0.1-0.9,0.1
	c-0.1,0-0.2,0-0.2,0c-0.2,0-0.3,0-0.5,0c-0.9,0.1-1.7,0.1-2.6,0c-0.6,0-1.1-0.1-1.7-0.1c-0.2,0-0.2,0-0.3-0.2c0-0.1,0-0.2-0.1-0.4
	c-0.2-0.3-0.4-0.5-0.7-0.7c-0.3-0.1-0.6-0.3-0.9-0.4c-0.5-0.2-1.1-0.2-1.6,0l-0.4,0.1c-0.5,0.2-1-0.1-1.2-0.5
	c-0.1-0.2-0.3-0.4-0.5-0.6c-0.3-0.2-0.4-0.4-0.4-0.7c0-0.2,0.1-0.5,0.2-0.7c0.1-0.3,0.3-0.5,0.3-0.8c0-0.1,0-0.2,0-0.3s0-0.3,0-0.5
	c0-0.2,0-0.4-0.1-0.6c-0.1-0.3-0.2-0.6-0.2-0.9c0-0.1,0-0.1,0.1-0.2c0.1-0.2,0.3-0.4,0.5-0.6c0.3-0.3,0.6-0.5,0.9-0.9
	c0.2-0.2,0.3-0.3,0.6-0.4c0.1,0,0.1,0,0.2,0s0,0.1,0,0.2s0,0.1,0,0.1l0.2,0.1c0.2,0.1,0.4,0.1,0.6-0.1c0-0.1,0.1-0.1,0.1-0.2
	c0-0.1,0.1-0.3,0.2-0.4c0.1-0.1,0.2-0.1,0.3-0.1c0,0,0,0,0,0c0.2,0.1,0.3,0.2,0.5,0.4c0.2,0.3,0.6,0.3,0.8,0.1c0,0,0,0,0,0
	c0.2-0.1,0.5-0.2,0.8-0.3c0.3-0.1,0.6,0,0.9,0.1c0.3,0.1,0.3,0.1,0.5-0.1c0.1-0.2,0.3-0.2,0.5-0.1c0.2,0.1,0.5,0.1,0.7,0
	c0.4-0.1,0.7-0.1,1.1,0c0.3,0,0.6,0.1,0.9,0.2c0.2,0.1,0.4,0.2,0.5,0.3c0.2,0.2,0.4,0.3,0.7,0.2h0.1c0.4,0,0.4,0,0.4,0.4v0.1
	c0,0.2,0,0.5-0.1,0.7c-0.1,0.3-0.3,0.7-0.6,0.9c-0.2,0.1-0.2,0.3-0.2,0.5c0.1,0.4,0.1,0.8,0.2,1.2c0.1,0.2,0.2,0.4,0.4,0.6
	c0.1,0.1,0.3,0.3,0.3,0.4c0,0.1,0,0.2-0.1,0.2c-0.1,0-0.2,0-0.3-0.1c-0.1,0-0.1-0.1-0.2,0s0,0.2,0,0.2c0.4,0.6,0.6,1.2,1,1.8
	c0.1,0.1,0.1,0.2,0.1,0.3c0,0.2,0.1,0.4,0.3,0.5c0.1,0.1,0.1,0.1,0.1,0.2c0,0.2,0.1,0.4,0.1,0.7C179.1,19.9,179.1,20,179,19.9z"/>
<path class="st2" d="M178.4,33.2c0,0,0.3,2.1,1.3,2.8c0.7,0.6,1.3,1.2,1.7,1.9l-2.4,0.6c-1,0.2-2,0.5-2.9,1
	c-0.7,0.6,0.5-2.5,0.7-2.6s1.3-0.3,1.5-1C178.4,35,178.4,34.1,178.4,33.2z"/>
</svg>
